<svg width="10" height="10" viewBox="0 0 10 10" fill="none" xmlns="http://www.w3.org/2000/svg">
<path d="M5.25074 9.08308C6.02574 8.41391 8.33366 6.24725 8.33366 4.16683C8.33366 3.28277 7.98247 2.43493 7.35735 1.80981C6.73223 1.18469 5.88438 0.833496 5.00033 0.833496C4.11627 0.833496 3.26842 1.18469 2.6433 1.80981C2.01818 2.43493 1.66699 3.28277 1.66699 4.16683C1.66699 6.24725 3.97491 8.41391 4.74991 9.08308C4.82211 9.13737 4.90999 9.16673 5.00033 9.16673C5.09066 9.16673 5.17854 9.13737 5.25074 9.08308Z" stroke="#6B7590" stroke-width="0.833333" stroke-linecap="round" stroke-linejoin="round"/>
<path d="M5 5.4165C5.69036 5.4165 6.25 4.85686 6.25 4.1665C6.25 3.47615 5.69036 2.9165 5 2.9165C4.30964 2.9165 3.75 3.47615 3.75 4.1665C3.75 4.85686 4.30964 5.4165 5 5.4165Z" stroke="#6B7590" stroke-width="0.833333" stroke-linecap="round" stroke-linejoin="round"/>
</svg>
